<mxfile host="Electron" modified="2024-02-14T08:55:36.314Z" agent="Mozilla/5.0 (Windows NT 10.0; Win64; x64) AppleWebKit/537.36 (KHTML, like Gecko) draw.io/22.0.3 Chrome/114.0.5735.289 Electron/25.8.4 Safari/537.36" etag="L09zmv2szH8TpJUEGNiS" version="22.0.3" type="device" pages="2">
  <diagram name="Windows Boot Process" id="XgZ039GixdZURgY8B_N0">
    <mxGraphModel dx="1413" dy="2270" grid="1" gridSize="10" guides="1" tooltips="1" connect="1" arrows="1" fold="1" page="1" pageScale="1" pageWidth="850" pageHeight="1100" math="0" shadow="0">
      <root>
        <mxCell id="0" />
        <mxCell id="1" parent="0" />
        <mxCell id="OIjsx5Lbw4lHaAmFp60X-14" style="edgeStyle=orthogonalEdgeStyle;rounded=0;orthogonalLoop=1;jettySize=auto;html=1;entryX=0.5;entryY=1;entryDx=0;entryDy=0;exitX=0.5;exitY=1;exitDx=0;exitDy=0;" edge="1" parent="1" source="auWv59esdB6_gmScPLl--2" target="auWv59esdB6_gmScPLl--3">
          <mxGeometry relative="1" as="geometry" />
        </mxCell>
        <mxCell id="auWv59esdB6_gmScPLl--2" value="BIOS Phase" style="rounded=0;whiteSpace=wrap;html=1;rotation=0;flipV=0;flipH=1;fillColor=#fff2cc;strokeColor=#d6b656;fontStyle=1;verticalAlign=middle;horizontal=0;gradientColor=#ffd966;" parent="1" vertex="1">
          <mxGeometry y="50" width="50" height="400" as="geometry" />
        </mxCell>
        <mxCell id="OIjsx5Lbw4lHaAmFp60X-15" style="edgeStyle=orthogonalEdgeStyle;rounded=0;orthogonalLoop=1;jettySize=auto;html=1;entryX=0.5;entryY=1;entryDx=0;entryDy=0;exitX=0.5;exitY=1;exitDx=0;exitDy=0;" edge="1" parent="1" source="auWv59esdB6_gmScPLl--3" target="auWv59esdB6_gmScPLl--4">
          <mxGeometry relative="1" as="geometry" />
        </mxCell>
        <mxCell id="auWv59esdB6_gmScPLl--3" value="Boot Loader Phase" style="rounded=0;whiteSpace=wrap;html=1;rotation=0;flipV=1;flipH=0;fillColor=#ffcd28;strokeColor=#d79b00;fontStyle=1;horizontal=0;gradientColor=#ffa500;" parent="1" vertex="1">
          <mxGeometry x="480" y="50" width="50" height="400" as="geometry" />
        </mxCell>
        <mxCell id="auWv59esdB6_gmScPLl--4" value="Kernel Phase" style="rounded=0;whiteSpace=wrap;html=1;rotation=0;flipV=1;flipH=0;fillColor=#f8cecc;strokeColor=#b85450;fontStyle=1;horizontal=0;gradientColor=#ea6b66;" parent="1" vertex="1">
          <mxGeometry x="960" y="40" width="50" height="400" as="geometry" />
        </mxCell>
        <mxCell id="auWv59esdB6_gmScPLl--6" value="UEFI Boot" style="rounded=0;whiteSpace=wrap;html=1;align=center;verticalAlign=middle;fontFamily=Helvetica;fontSize=12;fontStyle=1;horizontal=1;direction=south;fillColor=#f5f5f5;gradientColor=#b3b3b3;strokeColor=#666666;" parent="1" vertex="1">
          <mxGeometry x="50" width="1430" height="50" as="geometry" />
        </mxCell>
        <mxCell id="auWv59esdB6_gmScPLl--11" value="" style="edgeStyle=orthogonalEdgeStyle;rounded=0;orthogonalLoop=1;jettySize=auto;html=1;fontFamily=Helvetica;fontSize=12;fontColor=default;" parent="1" source="auWv59esdB6_gmScPLl--8" target="auWv59esdB6_gmScPLl--9" edge="1">
          <mxGeometry relative="1" as="geometry" />
        </mxCell>
        <UserObject label="Power on Self Test&lt;br&gt;(POST)" link="https://en.wikipedia.org/wiki/Power-on_self-test" id="auWv59esdB6_gmScPLl--8">
          <mxCell style="rounded=1;whiteSpace=wrap;html=1;strokeColor=#d6b656;align=center;verticalAlign=middle;fontFamily=Helvetica;fontSize=12;fillColor=#fff2cc;fontStyle=3" parent="1" vertex="1">
            <mxGeometry x="130" y="70" width="310" height="60" as="geometry" />
          </mxCell>
        </UserObject>
        <mxCell id="auWv59esdB6_gmScPLl--12" value="" style="edgeStyle=orthogonalEdgeStyle;rounded=0;orthogonalLoop=1;jettySize=auto;html=1;fontFamily=Helvetica;fontSize=12;fontColor=default;" parent="1" source="auWv59esdB6_gmScPLl--9" target="auWv59esdB6_gmScPLl--10" edge="1">
          <mxGeometry relative="1" as="geometry" />
        </mxCell>
        <UserObject label="Launch UEFI Firmware" link="https://wiki.osdev.org/UEFI" id="auWv59esdB6_gmScPLl--9">
          <mxCell style="rounded=1;whiteSpace=wrap;html=1;strokeColor=#d6b656;align=center;verticalAlign=middle;fontFamily=Helvetica;fontSize=12;fillColor=#fff2cc;fontStyle=3" parent="1" vertex="1">
            <mxGeometry x="130" y="210" width="310" height="60" as="geometry" />
          </mxCell>
        </UserObject>
        <mxCell id="OIjsx5Lbw4lHaAmFp60X-9" style="rounded=0;orthogonalLoop=1;jettySize=auto;html=1;entryX=0;entryY=0.5;entryDx=0;entryDy=0;exitX=1;exitY=0.5;exitDx=0;exitDy=0;" edge="1" parent="1" source="auWv59esdB6_gmScPLl--10" target="OIjsx5Lbw4lHaAmFp60X-6">
          <mxGeometry relative="1" as="geometry" />
        </mxCell>
        <mxCell id="auWv59esdB6_gmScPLl--10" value="Get Boot Information from SRAM&lt;br&gt;Boot Entries" style="rounded=1;whiteSpace=wrap;html=1;strokeColor=#d6b656;align=center;verticalAlign=middle;fontFamily=Helvetica;fontSize=12;fillColor=#fff2cc;fontStyle=3" parent="1" vertex="1">
          <mxGeometry x="130" y="380" width="310" height="60" as="geometry" />
        </mxCell>
        <mxCell id="OIjsx5Lbw4lHaAmFp60X-1" value="" style="edgeStyle=orthogonalEdgeStyle;rounded=0;orthogonalLoop=1;jettySize=auto;html=1;" edge="1" parent="1" source="auWv59esdB6_gmScPLl--13" target="auWv59esdB6_gmScPLl--14">
          <mxGeometry relative="1" as="geometry" />
        </mxCell>
        <mxCell id="auWv59esdB6_gmScPLl--13" value="Launch Windows NT OS Kernel&lt;br&gt;(ntoskrnl.exe)" style="rounded=1;whiteSpace=wrap;html=1;strokeColor=#b85450;align=center;verticalAlign=middle;fontFamily=Helvetica;fontSize=12;fillColor=#f8cecc;fontStyle=3" parent="1" vertex="1">
          <mxGeometry x="1095" y="70" width="310" height="60" as="geometry" />
        </mxCell>
        <mxCell id="OIjsx5Lbw4lHaAmFp60X-2" value="" style="edgeStyle=orthogonalEdgeStyle;rounded=0;orthogonalLoop=1;jettySize=auto;html=1;" edge="1" parent="1" source="auWv59esdB6_gmScPLl--14" target="auWv59esdB6_gmScPLl--16">
          <mxGeometry relative="1" as="geometry" />
        </mxCell>
        <mxCell id="auWv59esdB6_gmScPLl--14" value="Load Drivers" style="rounded=1;whiteSpace=wrap;html=1;strokeColor=#b85450;align=center;verticalAlign=middle;fontFamily=Helvetica;fontSize=12;fillColor=#f8cecc;fontStyle=3" parent="1" vertex="1">
          <mxGeometry x="1095" y="170" width="310" height="60" as="geometry" />
        </mxCell>
        <mxCell id="auWv59esdB6_gmScPLl--15" value="................." style="rounded=1;whiteSpace=wrap;html=1;strokeColor=#b85450;align=center;verticalAlign=middle;fontFamily=Helvetica;fontSize=12;fillColor=#f8cecc;fontStyle=3" parent="1" vertex="1">
          <mxGeometry x="1095" y="380" width="310" height="60" as="geometry" />
        </mxCell>
        <mxCell id="OIjsx5Lbw4lHaAmFp60X-3" value="" style="edgeStyle=orthogonalEdgeStyle;rounded=0;orthogonalLoop=1;jettySize=auto;html=1;" edge="1" parent="1" source="auWv59esdB6_gmScPLl--16" target="auWv59esdB6_gmScPLl--15">
          <mxGeometry relative="1" as="geometry" />
        </mxCell>
        <mxCell id="auWv59esdB6_gmScPLl--16" value="Launch Services" style="rounded=1;whiteSpace=wrap;html=1;strokeColor=#b85450;align=center;verticalAlign=middle;fontFamily=Helvetica;fontSize=12;fillColor=#f8cecc;fontStyle=3" parent="1" vertex="1">
          <mxGeometry x="1095" y="280" width="310" height="60" as="geometry" />
        </mxCell>
        <mxCell id="OIjsx5Lbw4lHaAmFp60X-12" value="" style="edgeStyle=orthogonalEdgeStyle;rounded=0;orthogonalLoop=1;jettySize=auto;html=1;" edge="1" parent="1" source="OIjsx5Lbw4lHaAmFp60X-4" target="OIjsx5Lbw4lHaAmFp60X-7">
          <mxGeometry relative="1" as="geometry" />
        </mxCell>
        <mxCell id="OIjsx5Lbw4lHaAmFp60X-4" value="Read BCD File" style="rounded=1;whiteSpace=wrap;html=1;strokeColor=#d79b00;align=center;verticalAlign=middle;fontFamily=Helvetica;fontSize=12;fillColor=#ffe6cc;fontStyle=3" vertex="1" parent="1">
          <mxGeometry x="610" y="160" width="310" height="60" as="geometry" />
        </mxCell>
        <mxCell id="OIjsx5Lbw4lHaAmFp60X-10" style="rounded=0;orthogonalLoop=1;jettySize=auto;html=1;entryX=0;entryY=0.5;entryDx=0;entryDy=0;exitX=1;exitY=0.5;exitDx=0;exitDy=0;" edge="1" parent="1" source="OIjsx5Lbw4lHaAmFp60X-5" target="auWv59esdB6_gmScPLl--13">
          <mxGeometry relative="1" as="geometry" />
        </mxCell>
        <mxCell id="OIjsx5Lbw4lHaAmFp60X-5" value="Load Kernel into Memory" style="rounded=1;whiteSpace=wrap;html=1;strokeColor=#d79b00;align=center;verticalAlign=middle;fontFamily=Helvetica;fontSize=12;fillColor=#ffe6cc;fontStyle=3" vertex="1" parent="1">
          <mxGeometry x="610" y="380" width="310" height="60" as="geometry" />
        </mxCell>
        <mxCell id="OIjsx5Lbw4lHaAmFp60X-11" value="" style="edgeStyle=orthogonalEdgeStyle;rounded=0;orthogonalLoop=1;jettySize=auto;html=1;" edge="1" parent="1" source="OIjsx5Lbw4lHaAmFp60X-6" target="OIjsx5Lbw4lHaAmFp60X-4">
          <mxGeometry relative="1" as="geometry" />
        </mxCell>
        <mxCell id="OIjsx5Lbw4lHaAmFp60X-6" value="Launch Windows Boot Manager&lt;br&gt;(bootmgfw.efi)" style="rounded=1;whiteSpace=wrap;html=1;strokeColor=#d79b00;align=center;verticalAlign=middle;fontFamily=Helvetica;fontSize=12;fillColor=#ffe6cc;fontStyle=3" vertex="1" parent="1">
          <mxGeometry x="610" y="70" width="310" height="60" as="geometry" />
        </mxCell>
        <mxCell id="OIjsx5Lbw4lHaAmFp60X-13" value="" style="edgeStyle=orthogonalEdgeStyle;rounded=0;orthogonalLoop=1;jettySize=auto;html=1;" edge="1" parent="1" source="OIjsx5Lbw4lHaAmFp60X-7" target="OIjsx5Lbw4lHaAmFp60X-5">
          <mxGeometry relative="1" as="geometry" />
        </mxCell>
        <mxCell id="OIjsx5Lbw4lHaAmFp60X-7" value="Launch Windows OS Loader&lt;br&gt;(winload.efi)" style="rounded=1;whiteSpace=wrap;html=1;strokeColor=#d79b00;align=center;verticalAlign=middle;fontFamily=Helvetica;fontSize=12;fillColor=#ffe6cc;fontStyle=3" vertex="1" parent="1">
          <mxGeometry x="610" y="270" width="310" height="60" as="geometry" />
        </mxCell>
        <mxCell id="OIjsx5Lbw4lHaAmFp60X-16" value="" style="endArrow=classic;html=1;rounded=0;entryX=0.5;entryY=0;entryDx=0;entryDy=0;" edge="1" parent="1" target="auWv59esdB6_gmScPLl--2">
          <mxGeometry width="50" height="50" relative="1" as="geometry">
            <mxPoint x="25" as="sourcePoint" />
            <mxPoint x="210" y="10" as="targetPoint" />
          </mxGeometry>
        </mxCell>
      </root>
    </mxGraphModel>
  </diagram>
  <diagram id="zmN_8eQJPv2LYLOYTVxN" name="UEFI Phases">
    <mxGraphModel dx="2734" dy="1560" grid="1" gridSize="10" guides="1" tooltips="1" connect="1" arrows="1" fold="1" page="1" pageScale="1" pageWidth="850" pageHeight="1100" math="0" shadow="0">
      <root>
        <mxCell id="0" />
        <mxCell id="1" parent="0" />
        <mxCell id="8J5HORh25zqKcCnRLqs8-1" value="&lt;b style=&quot;&quot;&gt;&lt;font style=&quot;font-size: 26px;&quot;&gt;&lt;br&gt;SEC&lt;/font&gt;&lt;br&gt;&lt;br&gt;&lt;span style=&quot;font-size: 18px;&quot;&gt;(Security)&lt;/span&gt;&lt;/b&gt;" style="rounded=0;whiteSpace=wrap;html=1;strokeColor=#6c8ebf;align=center;verticalAlign=top;fontFamily=Helvetica;fontSize=12;fillColor=#dae8fc;gradientDirection=south;gradientColor=#7ea6e0;" parent="1" vertex="1">
          <mxGeometry x="-600" y="240" width="200" height="170" as="geometry" />
        </mxCell>
        <mxCell id="8J5HORh25zqKcCnRLqs8-2" value="&lt;b style=&quot;border-color: var(--border-color);&quot;&gt;&lt;font style=&quot;font-size: 26px;&quot;&gt;&lt;br&gt;PEI&lt;/font&gt;&lt;br&gt;&lt;br style=&quot;border-color: var(--border-color);&quot;&gt;&lt;span style=&quot;font-size: 18px;&quot;&gt;(Pre-EFI Init)&lt;/span&gt;&lt;/b&gt;" style="rounded=0;whiteSpace=wrap;html=1;strokeColor=#6c8ebf;align=center;verticalAlign=top;fontFamily=Helvetica;fontSize=12;fillColor=#dae8fc;gradientDirection=south;gradientColor=#7ea6e0;" parent="1" vertex="1">
          <mxGeometry x="-400" y="240" width="200" height="170" as="geometry" />
        </mxCell>
        <mxCell id="8J5HORh25zqKcCnRLqs8-3" value="&lt;b style=&quot;border-color: var(--border-color);&quot;&gt;&lt;font style=&quot;font-size: 26px;&quot;&gt;&lt;br&gt;DXE&lt;/font&gt;&lt;br&gt;&lt;br style=&quot;border-color: var(--border-color);&quot;&gt;&lt;span style=&quot;font-size: 18px;&quot;&gt;(Driver &lt;/span&gt;&lt;br&gt;&lt;span style=&quot;font-size: 18px;&quot;&gt;Execution&lt;/span&gt;&lt;br&gt;&lt;span style=&quot;font-size: 18px;&quot;&gt;Environment)&lt;/span&gt;&lt;/b&gt;" style="rounded=0;whiteSpace=wrap;html=1;strokeColor=#6c8ebf;align=center;verticalAlign=top;fontFamily=Helvetica;fontSize=12;fillColor=#dae8fc;gradientColor=#7ea6e0;" parent="1" vertex="1">
          <mxGeometry x="-200" y="240" width="200" height="170" as="geometry" />
        </mxCell>
        <mxCell id="8J5HORh25zqKcCnRLqs8-4" value="&lt;b style=&quot;border-color: var(--border-color);&quot;&gt;&lt;font style=&quot;font-size: 26px;&quot;&gt;&lt;br&gt;BDS&lt;/font&gt;&lt;br&gt;&lt;br style=&quot;border-color: var(--border-color);&quot;&gt;&lt;span style=&quot;font-size: 18px;&quot;&gt;(Boot&lt;/span&gt;&lt;br&gt;&lt;span style=&quot;font-size: 18px;&quot;&gt;Device&lt;/span&gt;&lt;br&gt;&lt;span style=&quot;font-size: 18px;&quot;&gt;Selection)&lt;/span&gt;&lt;/b&gt;" style="rounded=0;whiteSpace=wrap;html=1;strokeColor=#6c8ebf;align=center;verticalAlign=top;fontFamily=Helvetica;fontSize=12;fillColor=#dae8fc;gradientColor=#7ea6e0;" parent="1" vertex="1">
          <mxGeometry y="240" width="200" height="170" as="geometry" />
        </mxCell>
        <mxCell id="8J5HORh25zqKcCnRLqs8-5" value="&lt;b style=&quot;border-color: var(--border-color);&quot;&gt;&lt;font style=&quot;font-size: 26px;&quot;&gt;&lt;br&gt;TSL&lt;/font&gt;&lt;br&gt;&lt;br style=&quot;border-color: var(--border-color);&quot;&gt;&lt;span style=&quot;font-size: 18px;&quot;&gt;(Transient&lt;/span&gt;&lt;br&gt;&lt;span style=&quot;font-size: 18px;&quot;&gt;System&lt;/span&gt;&lt;br&gt;&lt;span style=&quot;font-size: 18px;&quot;&gt;Load)&lt;/span&gt;&lt;/b&gt;" style="rounded=0;whiteSpace=wrap;html=1;strokeColor=#6c8ebf;align=center;verticalAlign=top;fontFamily=Helvetica;fontSize=12;fillColor=#dae8fc;gradientColor=#7ea6e0;" parent="1" vertex="1">
          <mxGeometry x="200" y="240" width="200" height="170" as="geometry" />
        </mxCell>
        <mxCell id="8J5HORh25zqKcCnRLqs8-6" value="&lt;b style=&quot;border-color: var(--border-color);&quot;&gt;&lt;font style=&quot;font-size: 26px;&quot;&gt;&lt;br&gt;RT&lt;/font&gt;&lt;br&gt;&lt;br style=&quot;border-color: var(--border-color);&quot;&gt;&lt;span style=&quot;font-size: 18px;&quot;&gt;(Run Time)&lt;/span&gt;&lt;/b&gt;" style="rounded=0;whiteSpace=wrap;html=1;strokeColor=#6c8ebf;align=center;verticalAlign=top;fontFamily=Helvetica;fontSize=12;fillColor=#dae8fc;gradientColor=#7ea6e0;" parent="1" vertex="1">
          <mxGeometry x="400" y="240" width="200" height="170" as="geometry" />
        </mxCell>
        <mxCell id="8J5HORh25zqKcCnRLqs8-8" value="PEI Modules" style="rounded=1;whiteSpace=wrap;html=1;strokeColor=#666666;align=center;verticalAlign=middle;fontFamily=Helvetica;fontSize=12;fillColor=#f5f5f5;gradientColor=#b3b3b3;fontStyle=1" parent="1" vertex="1">
          <mxGeometry x="-360" y="450" width="120" height="60" as="geometry" />
        </mxCell>
        <mxCell id="8J5HORh25zqKcCnRLqs8-9" value="DXE Drivers" style="rounded=1;whiteSpace=wrap;html=1;strokeColor=#666666;align=center;verticalAlign=middle;fontFamily=Helvetica;fontSize=12;fillColor=#f5f5f5;gradientColor=#b3b3b3;fontStyle=1" parent="1" vertex="1">
          <mxGeometry x="-160" y="450" width="120" height="60" as="geometry" />
        </mxCell>
        <mxCell id="8J5HORh25zqKcCnRLqs8-10" value="SMM Modules" style="rounded=1;whiteSpace=wrap;html=1;strokeColor=#666666;align=center;verticalAlign=middle;fontFamily=Helvetica;fontSize=12;fillColor=#f5f5f5;gradientColor=#b3b3b3;fontStyle=1" parent="1" vertex="1">
          <mxGeometry x="-160" y="530" width="120" height="60" as="geometry" />
        </mxCell>
        <mxCell id="8J5HORh25zqKcCnRLqs8-11" value="UEFI Boot&lt;br&gt;Manager" style="rounded=1;whiteSpace=wrap;html=1;strokeColor=#666666;align=center;verticalAlign=middle;fontFamily=Helvetica;fontSize=12;fillColor=#f5f5f5;gradientColor=#b3b3b3;fontStyle=1" parent="1" vertex="1">
          <mxGeometry x="40" y="450" width="120" height="60" as="geometry" />
        </mxCell>
        <mxCell id="8J5HORh25zqKcCnRLqs8-12" value="GRUB, Windows Boot Manager, ..." style="rounded=1;whiteSpace=wrap;html=1;strokeColor=#666666;align=center;verticalAlign=middle;fontFamily=Helvetica;fontSize=12;fillColor=#f5f5f5;gradientColor=#b3b3b3;fontStyle=1" parent="1" vertex="1">
          <mxGeometry x="240" y="450" width="120" height="60" as="geometry" />
        </mxCell>
        <mxCell id="8J5HORh25zqKcCnRLqs8-13" value="OS Kernel" style="rounded=1;whiteSpace=wrap;html=1;strokeColor=#666666;align=center;verticalAlign=middle;fontFamily=Helvetica;fontSize=12;fillColor=#f5f5f5;gradientColor=#b3b3b3;fontStyle=1" parent="1" vertex="1">
          <mxGeometry x="440" y="450" width="120" height="60" as="geometry" />
        </mxCell>
      </root>
    </mxGraphModel>
  </diagram>
</mxfile>
